{
  "accessors": [
    {
      "bufferView": 2,
      "componentType": 5126,
      "count": 60739,
      "max": [
        31.78399658203125,
        18.245502471923828,
        31.323333740234375
      ],
      "min": [
        -31.78399658203125,
        -0.05515720695257187,
        -31.323333740234375
      ],
      "type": "VEC3"
    },
    {
      "bufferView": 2,
      "byteOffset": 728868,
      "componentType": 5126,
      "count": 60739,
      "max": [
        1.0,
        1.0,
        1.0
      ],
      "min": [
        -1.0,
        -1.0,
        -1.0
      ],
      "type": "VEC3"
    },
    {
      "bufferView": 3,
      "componentType": 5126,
      "count": 60739,
      "max": [
        1.0,
        1.0,
        1.0,
        1.0
      ],
      "min": [
        -1.0,
        -1.0,
        -1.0,
        -1.0
      ],
      "type": "VEC4"
    },
    {
      "bufferView": 1,
      "componentType": 5126,
      "count": 60739,
      "max": [
        0.991254985332489,
        0.9921146631240845
      ],
      "min": [
        0.008078720420598984,
        0.007775425910949707
      ],
      "type": "VEC2"
    },
    {
      "bufferView": 1,
      "byteOffset": 485912,
      "componentType": 5126,
      "count": 60739,
      "max": [
        0.991254985332489,
        0.9921146631240845
      ],
      "min": [
        0.008078720420598984,
        0.007775425910949707
      ],
      "type": "VEC2"
    },
    {
      "bufferView": 1,
      "byteOffset": 971824,
      "componentType": 5126,
      "count": 60739,
      "max": [
        0.991254985332489,
        0.9921146631240845
      ],
      "min": [
        0.008078720420598984,
        0.007775425910949707
      ],
      "type": "VEC2"
    },
    {
      "bufferView": 1,
      "byteOffset": 1457736,
      "componentType": 5126,
      "count": 60739,
      "max": [
        0.991254985332489,
        0.9921146631240845
      ],
      "min": [
        0.008078720420598984,
        0.007775425910949707
      ],
      "type": "VEC2"
    },
    {
      "bufferView": 1,
      "byteOffset": 1943648,
      "componentType": 5126,
      "count": 60739,
      "max": [
        0.991254985332489,
        0.9921146631240845
      ],
      "min": [
        0.008078720420598984,
        0.007775425910949707
      ],
      "type": "VEC2"
    },
    {
      "bufferView": 0,
      "componentType": 5125,
      "count": 311577,
      "type": "SCALAR"
    },
    {
      "bufferView": 2,
      "byteOffset": 1457736,
      "componentType": 5126,
      "count": 1285,
      "max": [
        22.901996612548828,
        12.259994506835938,
        20.76456069946289
      ],
      "min": [
        -25.60501480102539,
        8.396151542663574,
        -20.72066879272461
      ],
      "type": "VEC3"
    },
    {
      "bufferView": 2,
      "byteOffset": 1473156,
      "componentType": 5126,
      "count": 1285,
      "max": [
        0.9975913166999817,
        1.0,
        0.9915666580200195
      ],
      "min": [
        -0.9990993738174438,
        -0.999984860420227,
        -0.9954774975776672
      ],
      "type": "VEC3"
    },
    {
      "bufferView": 3,
      "byteOffset": 971824,
      "componentType": 5126,
      "count": 1285,
      "max": [
        0.9941248893737793,
        0.9996582865715027,
        0.9999618530273438,
        1.0
      ],
      "min": [
        -0.8882707953453064,
        -0.9985848069190979,
        -0.9999440312385559,
        1.0
      ],
      "type": "VEC4"
    },
    {
      "bufferView": 1,
      "byteOffset": 2429560,
      "componentType": 5126,
      "count": 1285,
      "max": [
        0.6573962569236755,
        0.9890521764755249
      ],
      "min": [
        0.34336480498313904,
        0.07002949714660645
      ],
      "type": "VEC2"
    },
    {
      "bufferView": 1,
      "byteOffset": 2439840,
      "componentType": 5126,
      "count": 1285,
      "max": [
        0.6573962569236755,
        0.9890521764755249
      ],
      "min": [
        0.34336480498313904,
        0.07002949714660645
      ],
      "type": "VEC2"
    },
    {
      "bufferView": 1,
      "byteOffset": 2450120,
      "componentType": 5126,
      "count": 1285,
      "max": [
        0.6573962569236755,
        0.9890521764755249
      ],
      "min": [
        0.34336480498313904,
        0.07002949714660645
      ],
      "type": "VEC2"
    },
    {
      "bufferView": 1,
      "byteOffset": 2460400,
      "componentType": 5126,
      "count": 1285,
      "max": [
        0.6573962569236755,
        0.9890521764755249
      ],
      "min": [
        0.34336480498313904,
        0.07002949714660645
      ],
      "type": "VEC2"
    },
    {
      "bufferView": 1,
      "byteOffset": 2470680,
      "componentType": 5126,
      "count": 1285,
      "max": [
        0.6573962569236755,
        0.9890521764755249
      ],
      "min": [
        0.34336480498313904,
        0.07002949714660645
      ],
      "type": "VEC2"
    },
    {
      "bufferView": 0,
      "byteOffset": 1246308,
      "componentType": 5125,
      "count": 6612,
      "type": "SCALAR"
    }
  ],
  "asset": {
    "extras": {
      "author": "Al-Deezel (https://sketchfab.com/Al-dezel)",
      "license": "CC-BY-4.0 (http://creativecommons.org/licenses/by/4.0/)",
      "source": "https://sketchfab.com/3d-models/plant-cell-a7e1a886fe9d49589878a255446837a4",
      "title": "Plant Cell"
    },
    "generator": "Sketchfab-15.38.0",
    "version": "2.0"
  },
  "bufferViews": [
    {
      "buffer": 0,
      "byteLength": 1272756,
      "name": "floatBufferViews",
      "target": 34963
    },
    {
      "buffer": 0,
      "byteLength": 2480960,
      "byteOffset": 1272756,
      "byteStride": 8,
      "name": "floatBufferViews",
      "target": 34962
    },
    {
      "buffer": 0,
      "byteLength": 1488576,
      "byteOffset": 3753716,
      "byteStride": 12,
      "name": "floatBufferViews",
      "target": 34962
    },
    {
      "buffer": 0,
      "byteLength": 992384,
      "byteOffset": 5242292,
      "byteStride": 16,
      "name": "floatBufferViews",
      "target": 34962
    }
  ],
  "buffers": [
    {
      "byteLength": 6234676,
      "uri": "scene.bin"
    }
  ],
  "extensionsRequired": [
    "KHR_materials_pbrSpecularGlossiness"
  ],
  "extensionsUsed": [
    "KHR_materials_pbrSpecularGlossiness"
  ],
  "images": [
    {
      "uri": "textures/material_0_diffuse.png"
    },
    {
      "uri": "textures/material_0_specularGlossiness.png"
    },
    {
      "uri": "textures/material_0_normal.png"
    },
    {
      "uri": "textures/material_0_occlusion.png"
    }
  ],
  "materials": [
    {
      "alphaMode": "MASK",
      "doubleSided": true,
      "extensions": {
        "KHR_materials_pbrSpecularGlossiness": {
          "diffuseFactor": [
            1.0,
            1.0,
            1.0,
            1.0
          ],
          "diffuseTexture": {
            "index": 0
          },
          "glossinessFactor": 1.0,
          "specularFactor": [
            1.0,
            1.0,
            1.0
          ],
          "specularGlossinessTexture": {
            "index": 1
          }
        }
      },
      "name": "material_0",
      "normalTexture": {
        "index": 2
      },
      "occlusionTexture": {
        "index": 3
      }
    },
    {
      "alphaMode": "BLEND",
      "doubleSided": true,
      "extensions": {
        "KHR_materials_pbrSpecularGlossiness": {
          "diffuseFactor": [
            1.0,
            1.0,
            1.0,
            1.0
          ],
          "diffuseTexture": {
            "index": 0
          },
          "glossinessFactor": 1.0,
          "specularFactor": [
            1.0,
            1.0,
            1.0
          ],
          "specularGlossinessTexture": {
            "index": 1
          }
        }
      },
      "name": "material_1",
      "normalTexture": {
        "index": 2
      },
      "occlusionTexture": {
        "index": 3
      }
    }
  ],
  "meshes": [
    {
      "name": "Object_0",
      "primitives": [
        {
          "attributes": {
            "NORMAL": 1,
            "POSITION": 0,
            "TANGENT": 2,
            "TEXCOORD_0": 3,
            "TEXCOORD_1": 4,
            "TEXCOORD_2": 5,
            "TEXCOORD_3": 6,
            "TEXCOORD_4": 7
          },
          "indices": 8,
          "material": 0,
          "mode": 4
        }
      ]
    },
    {
      "name": "Object_1",
      "primitives": [
        {
          "attributes": {
            "NORMAL": 10,
            "POSITION": 9,
            "TANGENT": 11,
            "TEXCOORD_0": 12,
            "TEXCOORD_1": 13,
            "TEXCOORD_2": 14,
            "TEXCOORD_3": 15,
            "TEXCOORD_4": 16
          },
          "indices": 17,
          "material": 1,
          "mode": 4
        }
      ]
    }
  ],
  "nodes": [
    {
      "children": [
        1
      ],
      "matrix": [
        1.0,
        0.0,
        0.0,
        0.0,
        0.0,
        2.220446049250313e-16,
        -1.0,
        0.0,
        0.0,
        1.0,
        2.220446049250313e-16,
        0.0,
        0.0,
        0.0,
        0.0,
        1.0
      ],
      "name": "Sketchfab_model"
    },
    {
      "children": [
        2
      ],
      "name": "root"
    },
    {
      "children": [
        3
      ],
      "matrix": [
        1.0,
        0.0,
        0.0,
        0.0,
        0.0,
        2.220446049250313e-16,
        1.0,
        0.0,
        0.0,
        -1.0,
        2.220446049250313e-16,
        0.0,
        0.0,
        0.0,
        0.0,
        1.0
      ],
      "name": "GLTF_SceneRootNode"
    },
    {
      "children": [
        4
      ],
      "matrix": [
        0.009999999776482582,
        0.0,
        0.0,
        0.0,
        0.0,
        0.009999999776482582,
        0.0,
        0.0,
        0.0,
        0.0,
        0.009999999776482582,
        0.0,
        0.0,
        0.0,
        0.0,
        1.0
      ],
      "name": "RootNode.0_0"
    },
    {
      "children": [
        5,
        7
      ],
      "name": "plant_cell_section.1_1"
    },
    {
      "children": [
        6
      ],
      "name": "plant_cell_cross_section_a.2_2"
    },
    {
      "mesh": 0,
      "name": "Object_6"
    },
    {
      "children": [
        8
      ],
      "name": "plant_cell_cross_section_mask.3_3"
    },
    {
      "mesh": 1,
      "name": "Object_8"
    }
  ],
  "samplers": [
    {
      "magFilter": 9729,
      "minFilter": 9987,
      "wrapS": 10497,
      "wrapT": 10497
    }
  ],
  "scene": 0,
  "scenes": [
    {
      "name": "Sketchfab_Scene",
      "nodes": [
        0
      ]
    }
  ],
  "textures": [
    {
      "sampler": 0,
      "source": 0
    },
    {
      "sampler": 0,
      "source": 1
    },
    {
      "sampler": 0,
      "source": 2
    },
    {
      "sampler": 0,
      "source": 3
    }
  ]
}
